<?xml version="1.0" standalone="no"?><!DOCTYPE svg PUBLIC "-//W3C//DTD SVG 1.1//EN" "http://www.w3.org/Graphics/SVG/1.1/DTD/svg11.dtd"><svg t="1626161287683" class="icon" viewBox="0 0 1024 1024" version="1.1" xmlns="http://www.w3.org/2000/svg" p-id="4184" xmlns:xlink="http://www.w3.org/1999/xlink" width="200" height="200"><defs><style type="text/css"></style></defs><path d="M889.5 768.2H137c0.4-1 0.6-1.8 1-2.6 27.1-60.6 54.3-121.3 81.3-181.9 0.8-1.9 1.8-2.6 3.9-2.6 193.4 0.1 386.7 0.1 580.1 0 2 0 2.9 0.5 3.8 2.4 27.2 60.8 54.4 121.6 81.6 182.5 0.2 0.6 0.4 1.2 0.8 2.2zM226.5 551v-3.6V475c0-35.2 28.5-64.6 63.7-65.6 9.2-0.3 18.4-0.1 27.5-0.2 2.2 0 3.1 0.7 3.7 2.8 6.7 22.6 13.4 45.2 20.2 67.9 0.3 0.9 0.6 1.9 1 3.2 0.6-1 1-1.6 1.3-2.3 4.8-11.1 9.6-22.3 14.5-33.4 0.9-2 0.6-3.4-0.8-5.1-5.4-6.6-10.6-13.3-15.8-19.9-0.6-0.7-1.1-1.5-2.1-3 4.3 0.4 7.9 1 11.5 1 9.9-0.1 19.9-0.5 29.8-0.8 1.2 0 2.4 0.5 4.1 0.9-5.8 7.4-11 14.2-16.4 20.9-1.5 1.8-1.7 3.2-0.7 5.3 4.9 10.7 9.6 21.4 14.4 32.2 0.4 0.9 0.9 1.7 1.5 3.1 3.2-10.7 6.2-20.9 9.3-31.1 3.8-12.9 7.7-25.8 11.4-38.7 0.6-2.2 1.6-3 3.9-2.9 9.3 0.2 18.6 0 27.8 0.3 31.9 0.8 59.6 26.8 62.8 58.6 0.3 3.3 0.5 6.6 0.5 9.8v73.2c-90.9-0.2-181.7-0.2-273.1-0.2zM528.3 551v-3.6-71.5c0-36.2 27.8-65.1 64-66.5 9.3-0.4 18.5-0.1 27.8-0.3 2.2 0 2.6 1.1 3.1 2.8 6.7 22.5 13.4 45 20.1 67.6 0.3 1 0.6 2.1 1.1 3.5 0.6-1 1-1.6 1.3-2.3 4.9-11.2 9.7-22.5 14.6-33.7 0.8-1.9 0.5-3-0.7-4.5-5.4-6.7-10.7-13.4-16-20.2-0.6-0.7-1.1-1.5-2.2-3 2.3 0.2 3.8 0.3 5.3 0.5 12 1.5 24.1 1.2 36.1-0.2 1.1-0.1 2.4 0.5 4.1 0.9-5.8 7.4-10.9 14.1-16.2 20.7-1.6 2-1.9 3.5-0.8 5.8 4.9 10.6 9.5 21.3 14.3 31.9 0.4 0.9 0.9 1.7 1.5 3.1 3.6-12 7-23.4 10.4-34.8 3.5-11.7 7-23.5 10.4-35.2 0.4-1.3 0.6-2.7 2.6-2.6 12.1 0.3 24.2-0.3 36.1 1 28.5 3.3 52.9 28.8 55.6 57.2 0.3 3.6 0.5 7.2 0.5 10.7v72.9c-90.8-0.2-181.7-0.2-273-0.2zM15 768.2V764c0-47.4 0.1-94.8-0.1-142.2 0-6.7 2.4-11.5 7.1-15.6 12.4-10.9 27-17.5 42.9-21.4 12.1-3 24.3-4.8 36.7-2.7 14.6 2.4 26.4 10.3 36.6 20.7 9.6 9.9 17.2 21.1 22.3 34 1.6 3.9 1.6 7.3-0.3 11.4-18.4 39.1-36.6 78.3-54.8 117.5-0.7 1.6-1.4 2.7-3.6 2.7-28.1-0.1-56.3-0.1-84.4-0.1-0.6 0-1.3 0-2.4-0.1zM1011.2 691.6c0 24.4 0 48.9 0.1 73.3 0 2.7-0.7 3.5-3.5 3.5-27.5-0.1-55.1-0.1-82.6 0-2.4 0-3.5-0.9-4.4-2.9-18.2-39.3-36.4-78.6-54.8-117.9-1.6-3.5-1.8-6.5-0.5-10 5.2-13.7 13.3-25.6 23.7-36 9.1-9.1 19.6-16 32.3-19 10.5-2.5 21-1.5 31.5 0.3 17.3 3 33.3 9.3 47.5 20 1.4 1 2.6 2.1 3.9 3.3 4.7 4.1 7.1 8.9 7 15.6-0.4 23.3-0.2 46.5-0.2 69.8zM664.8 232.2c17.3 0.4 33.4 4.2 46.9 15.7 12.1 10.3 18.2 23.9 20.8 39.3 0 0.3 0.1 0.6 0.1 0.9 0.2 4.8 1.7 8.1 6 11.4 11.6 8.8 11.6 31 0.8 40.8-2.9 2.6-6.2 4.5-10.2 4.4-2-0.1-2.7 0.7-3.3 2.5-4.8 13.8-11.3 26.6-20.6 37.9-8 9.7-17.3 17.7-29.7 21.2-15 4.2-28.2-0.2-39.9-9.7-14.3-11.5-23.2-26.8-30.1-43.6-0.2-0.5-0.4-0.9-0.5-1.4-1.1-4.1-2.5-6.8-7.9-7.6-7.9-1.2-12-7.9-13.9-15.3-2.7-10.7-1.4-20.6 6.7-28.8 0.5-0.5 1-1.2 1.6-1.3 4.7-1.3 4.5-5.3 5-9 2.7-19.6 10.9-35.9 28.1-46.8 10.6-6.7 22.4-9.6 34.9-10.3 1.9-0.1 3.6-0.2 5.2-0.3zM359.7 232.4c18.8-0.4 36.3 3.3 50.9 16 11.8 10.3 17.8 23.7 20.3 39v0.3c0.4 4.8 1.5 8.5 6.1 12 11.6 8.6 11.5 30.7 0.9 40.5-2.9 2.6-6.1 4.6-10.1 4.5-2.1 0-2.9 0.7-3.5 2.6-5.5 15.7-13.1 30.2-24.6 42.3-9.4 9.9-20.2 17.2-34.3 18-11.9 0.7-22.1-3.7-31.1-11-13.9-11.2-22.8-26-29.6-42.1-0.3-0.8-0.8-1.6-1-2.5-1.1-4.5-2.9-7.2-8.4-8.2-7.8-1.3-11.6-8-13.5-15.3-2.5-9.8-1.4-19 5.2-27.1 0.9-1.1 2-2.6 3.3-3 4.6-1.5 4.4-5.2 4.8-8.8 1.9-14.7 7.1-28 17.7-38.7 11.5-11.6 25.9-16.8 41.8-18.3 1.7 0 3.4-0.1 5.1-0.2zM878.3 469.2c0-21.4 5.3-41.1 19-57.9 14-17.1 31.7-27.5 54.3-27.7 24.4-0.2 43.2 10.7 56.3 30.9 13.1 20.1 16.1 42.3 10.2 65.4-7.5 29.2-23.3 53.1-47.8 70.9-8.3 6-17.6 10.2-28 11.1-14.6 1.4-26.5-4.2-36.4-14.5-13-13.6-20.1-30.3-24-48.4-2.1-9.8-3-19.8-4.4-29.8h0.8zM148.2 468.9c-0.7 24.7-6 48-19.7 68.7-6.1 9.1-13.6 16.7-23.9 21.1-13.4 5.8-26.5 3.9-39.2-2.4-14-6.9-24.9-17.5-34.2-29.8C19 510.6 9.9 493 6.8 473c-4.2-27.7 2.3-52.5 23.1-72.1 23.9-22.6 59.7-23.4 86.2-2.4 18.1 14.3 28 33.3 31 56 0.4 3 0.6 5.9 0.8 8.9 0.2 1.9 0.2 3.8 0.3 5.5z" p-id="4185" fill="#bbbbbb"></path></svg>