<?xml version="1.0" standalone="no"?><!DOCTYPE svg PUBLIC "-//W3C//DTD SVG 1.1//EN" "http://www.w3.org/Graphics/SVG/1.1/DTD/svg11.dtd"><svg t="1626159156342" class="icon" viewBox="0 0 1293 1024" version="1.1" xmlns="http://www.w3.org/2000/svg" p-id="4086" xmlns:xlink="http://www.w3.org/1999/xlink" width="252.5390625" height="200"><defs><style type="text/css"></style></defs><path d="M826.805534 176.456999c0 74.170112-45.78402 137.621377-110.204829 163.422018 143.27705 29.894272 196.009468 159.974751 196.009468 311.86997 0 6.840671-532.495082 0-532.495082 0 0-138.967966 65.444217-281.921835 208.667403-311.86997a175.972227 175.972227 0 0 1-110.150965-163.422018C478.739256 79.394877 556.625953 0.700226 652.718531 0.592499c96.092578 0.107727 173.979275 78.802378 174.087003 175.8645zM1292.725264 400.26006c0 74.170112-45.78402 137.621377-110.150965 163.422019 208.77513 215.885119 78.856241 364.386934-61.835358 446.151807-2.908632 1.723634-163.368155-322.804271-163.368156-322.804272s20.737468-92.48372 97.385304-123.347535a175.972227 175.972227 0 0 1-110.204829-163.422019c0.107727-97.062122 77.994424-175.756772 174.087002-175.8645 96.092578 0.107727 173.979275 78.802378 174.087002 175.8645z m-1292.725264 0c0.107727-97.062122 77.994424-175.756772 174.087002-175.8645 96.092578 0.107727 173.979275 78.802378 174.087003 175.8645a175.972227 175.972227 0 0 1-110.204829 163.422019c76.647835 30.863816 97.385303 123.347536 97.385303 123.347535s-160.459523 324.527905-163.368155 322.804272c-140.6916-81.764873-270.610489-230.266688-61.781495-446.151807A176.02609 176.02609 0 0 1 0 400.26006z m388.625533 306.160433h519.783283l149.04045 309.877019H248.04166l140.583873-309.877019z" p-id="4087"></path></svg>