<?xml version="1.0" standalone="no"?><!DOCTYPE svg PUBLIC "-//W3C//DTD SVG 1.1//EN" "http://www.w3.org/Graphics/SVG/1.1/DTD/svg11.dtd"><svg t="1626159143304" class="icon" viewBox="0 0 1054 1024" version="1.1" xmlns="http://www.w3.org/2000/svg" p-id="3253" xmlns:xlink="http://www.w3.org/1999/xlink" width="205.859375" height="200"><defs><style type="text/css"></style></defs><path d="M410.112 188.928c0 62.464 50.688 112.64 112.64 112.64 62.464 0 112.64-50.688 112.64-112.64 0-62.464-50.688-112.64-112.64-112.64-62.464 0-112.64 50.688-112.64 112.64zM797.696 188.928c0 62.464 50.688 112.64 112.64 112.64s112.64-50.688 112.64-112.64c0-62.464-50.688-112.64-112.64-112.64s-112.64 50.688-112.64 112.64zM22.528 188.928c0 62.464 50.176 112.64 112.64 112.64s112.64-50.176 112.64-112.64-50.688-112.64-112.64-112.64c-62.464 0-112.64 50.688-112.64 112.64zM522.752 335.872c-95.744 0-173.056 77.312-173.056 173.056h346.112c0-95.232-77.312-173.056-173.056-173.056z" p-id="3254"></path><path d="M812.032 891.392v-60.928h98.304c66.048 0 119.296-53.248 119.296-119.296V476.16c0-66.048-53.248-119.296-119.296-119.296s-119.296 53.248-119.296 119.296v64.512h-536.576V476.16c0-66.048-53.248-119.296-119.296-119.296s-119.296 53.248-119.296 119.296v235.52c0 66.048 53.248 119.296 119.296 119.296h112.64v60.928c0 36.352 29.696 66.048 66.048 66.048h432.128c36.352 0 66.048-29.696 66.048-66.56z" p-id="3255"></path></svg>