<?xml version="1.0" standalone="no"?><!DOCTYPE svg PUBLIC "-//W3C//DTD SVG 1.1//EN" "http://www.w3.org/Graphics/SVG/1.1/DTD/svg11.dtd"><svg t="1626159203475" class="icon" viewBox="0 0 1110 1024" version="1.1" xmlns="http://www.w3.org/2000/svg" p-id="10322" xmlns:xlink="http://www.w3.org/1999/xlink" width="216.796875" height="200"><defs><style type="text/css"></style></defs><path d="M0 325.782967c9.205798-12.274398 17.38873-25.571661 28.128828-36.823192 16.877297-17.900163 38.868925-25.571661 63.41772-28.128828 20.968762-2.557166 42.448958 0 62.394854 8.694365C181.558797 281.288276 199.45896 302.257039 209.687624 330.385866c1.022866 2.557166 0.511433 5.625766 0.511433 8.182932v260.319514c0 6.137199 2.045733 9.205798 7.160066 11.762964 37.846059 20.968762 75.692118 41.426092 113.538177 62.906288 14.32013 7.671498 28.640261 15.85443 42.448958 24.548795 16.365863 10.228665 21.991629 27.105961 25.060228 45.006124 2.045733 11.251531 2.045733 22.503062 2.045733 33.754593v188.718862c0 32.731727-26.083095 57.280522-58.303388 58.303388-14.32013 0.511433-27.617394-0.511433-39.891792-8.182932-16.877297-10.740098-24.548795-27.105961-24.548795-46.02899-0.511433-53.700489 0-107.400978 0-161.101468V797.835838c-29.151694-13.297264-57.791955-27.105961-86.432216-40.403225-48.074724-21.991629-96.149447-43.983258-144.224171-66.48632-20.968762-9.717231-35.800326-25.571661-42.960391-47.56329-0.511433-2.045733-1.5343-4.091466-2.557166-6.648632V325.782967z m345.21743 643.383003c0-1.022866 0.511433-2.557166 0.511433-3.580032v-215.31339c0-2.557166-2.557166-5.625766-5.114332-6.648632-14.32013-8.182932-29.151694-15.85443-43.471825-23.525929-45.006124-24.548795-90.012248-49.609023-135.018372-74.157818-5.625766-3.068599-7.671498-6.137199-7.671499-12.274397V351.866062c0-8.694365-3.580033-15.85443-9.205798-21.991629-15.85443-18.923029-52.677623-19.945896-71.089219-8.182932-11.251531 7.160065-20.968762 17.38873-20.968762 31.708861V613.719876c0 11.762964 5.114332 21.480196 16.877296 27.105961 5.114332 2.557166 10.228665 4.602899 15.854431 6.648632l98.19518 46.02899c46.028991 21.480196 92.057981 43.471825 138.086972 64.440587 5.625766 2.557166 7.671498 5.625766 7.671498 12.274398-0.511433 63.41772 0 126.324008 0 189.741728v9.717232l15.342997-0.511434zM558.99652 0c7.671498 1.5343 15.342997 2.557166 22.503062 5.114332 34.266026 12.274398 54.211922 36.311759 59.326255 72.623519 3.580033 27.617394-5.114332 51.143323-23.525929 70.577786-23.014495 23.525929-52.166189 31.70886-83.875049 23.525928-35.800326-8.694365-59.326255-33.24316-64.952021-69.554919C459.778473 51.143323 489.953034 12.274398 538.027758 1.5343c3.580033-1.022866 7.160065-1.022866 10.740097-1.5343h10.228665z m28.128828 86.943649c0-17.38873-15.85443-34.266026-32.220294-33.24316-19.945896 1.022866-33.754593 14.831564-34.266026 34.266027-0.511433 14.32013 16.877297 34.266026 33.754593 33.243159 15.85443-0.511433 34.266026-13.808697 32.731727-34.266026z m520.639028 393.292154v146.269903c0 20.968762-9.717231 38.868925-26.083095 49.609024-23.525929 14.831564-49.609023 26.594528-75.180685 38.868925-18.411596 9.205798-37.334626 17.38873-56.257655 25.571662-37.334626 16.877297-75.180685 34.266026-112.515311 51.143323-5.114332 2.045733-5.625766 5.625766-5.625765 10.228664 0 54.211922 0.511433 108.423845 0 163.1472 0 23.014495-12.785831 45.006124-37.334626 51.143323-25.571661 6.137199-50.120457 4.602899-69.554919-15.342996-10.228665-10.228665-15.85443-24.037362-15.85443-38.357493 0-68.02062-0.511433-136.041239 0-203.550425 0-19.434463 4.091466-38.357492 16.877296-54.211922 4.091466-5.114332 8.694365-9.205798 14.320131-12.274398 47.56329-26.594528 95.126581-53.189056 143.712737-78.760717 12.785831-6.648632 17.38873-13.297264 16.877297-28.128828-1.022866-82.852183 0-165.704366-0.511434-248.55655 0-13.808697 6.137199-24.037362 13.297264-34.266026 14.32013-21.480196 37.334626-36.311759 62.906288-40.914658 42.448958-7.671498 81.317884 0.511433 111.492444 33.754593 7.671498 8.182932 12.785831 18.923029 18.923029 28.640261 1.5343 2.557166 1.5343 5.625766 1.5343 8.694365-1.022866 48.586157-1.022866 98.19518-1.022866 147.29277z m-329.363 485.861568V956.38014v-189.741729c0-5.625766 1.5343-8.694365 7.160065-11.251531 10.740098-4.602899 20.968762-10.228665 31.70886-14.831563 50.120457-23.014495 100.752346-46.540424 150.872803-69.55492 21.480196-10.228665 43.471825-20.457329 64.95202-30.17456 15.342997-7.160065 21.480196-15.85443 21.480196-32.731727V356.468961c0-17.900163-9.205798-28.640261-23.014496-36.823192-14.32013-8.694365-30.685994-9.205798-46.540424-4.6029-16.365863 4.602899-32.731727 19.434463-32.220293 42.448959 1.022866 91.546548 0.511433 183.093096 0.511433 274.128211 0 6.648632-2.045733 9.717231-7.671498 12.274397-15.85443 7.671498-30.685994 15.85443-46.028991 24.548795-43.471825 23.525929-86.432216 47.56329-130.415474 71.089219-5.625766 3.068599-7.671498 5.625766-7.671498 11.762964v207.130458c0 2.557166 0 4.602899 0.511433 7.671499h16.365864z" fill="#333333" p-id="10323"></path><path d="M432.161079 502.227432v-10.740098c0-70.066352 0.511433-140.132705 0-210.199058 0-22.503062 10.740098-37.846059 27.105961-50.120456 18.923029-13.808697 40.403225-19.434463 62.906288-21.480196 15.85443-1.022866 31.197427-2.045733 47.051857-1.5343 27.617394 0.511433 53.700489 6.137199 75.692118 23.525929 17.900163 13.808697 30.685994 30.685994 30.17456 56.257655-1.022866 68.02062-0.511433 136.552672-0.511433 204.573292v10.228665h9.205798c40.914658 0 81.317884 0.511433 122.232542 0 11.762964 0 18.923029 5.625766 23.014495 14.831563 4.602899 9.205798 3.068599 20.457329-3.580032 28.640261-5.625766 7.160065-12.785831 10.228665-22.503062 10.228665-167.750099-0.511433-334.988765-0.511433-502.738865 0-18.923029 0-26.594528-16.877297-24.037362-31.197427 1.5343-8.694365 3.580033-17.38873 12.785831-20.968763 3.068599-1.022866 6.137199-1.5343 9.717231-1.534299 44.494691-0.511433 88.477949-0.511433 133.484073-0.511433z m189.741728-0.511434V295.608407c-0.511433-3.580033-1.5343-7.160065-3.580032-10.740098-5.625766-10.228665-15.342997-15.342997-25.571662-18.92303-26.594528-8.694365-53.700489-7.671498-79.783584 1.022867-15.85443 5.114332-28.128828 13.808697-27.617394 38.357492 1.022866 62.394854 0.511433 124.789708 0.511433 187.184562v9.717232l136.041239-0.511434zM104.843812 53.189056c45.517557-2.557166 90.012248 39.380359 86.943649 91.035115-2.557166 45.517557-37.846059 83.363616-87.455082 83.363616-48.074724 0-86.943649-37.846059-87.455082-88.477949 0-46.540424 39.380359-88.477949 87.966515-85.920782z m-0.511433 119.675376c19.945896 1.5343 33.754593-17.38873 33.754593-33.24316s-14.831564-33.754593-33.24316-33.24316c-19.945896 0.511433-33.754593 14.831564-34.266026 33.24316-0.511433 17.38873 15.342997 34.77746 33.754593 33.24316z m899.099618 53.189056c-48.074724 1.5343-88.477949-39.380359-87.455083-88.989382 0.511433-41.426092 38.357492-88.477949 95.126581-84.386483 39.380359 3.068599 82.34075 39.380359 79.783584 91.035115-2.045733 42.960391-37.334626 83.363616-87.455082 82.34075z m1.022866-119.675376c-18.923029-2.557166-35.288893 17.38873-35.288893 33.24316 0.511433 18.923029 16.877297 33.24316 33.754593 33.24316 17.38873 0 33.754593-14.831564 34.266027-33.754594 0.511433-16.877297-15.85443-32.731727-32.731727-32.731726zM537.004891 763.569812v137.064105c0 9.717231-3.580033 15.342997-12.785831 17.38873-8.182932 2.045733-16.365863 2.045733-24.548795 1.5343-11.251531-1.5343-15.85443-8.182932-15.85443-19.945896v-273.616778c0-12.785831 7.671498-20.457329 20.457329-19.945896 6.648632 0 13.297264 0.511433 19.434463 1.5343 9.205798 1.5343 13.297264 7.671498 13.297264 16.877296v139.109839z m86.432216-1.022867v138.086972c0 9.717231-3.068599 15.85443-12.785831 17.38873-9.205798 1.5343-18.411596 1.5343-27.105961 0-9.717231-1.5343-13.297264-7.160065-13.297264-16.877296V623.94854c-0.511433-9.717231 7.160065-18.411596 17.38873-18.411596h1.5343c7.160065 0 14.32013 0.511433 21.480195 1.5343 9.205798 1.5343 13.297264 7.671498 13.297264 16.877296v138.598405h-0.511433zM516.547562 52.677623h75.692118v75.692118H516.547562z" fill="#333333" p-id="10324"></path><path d="M65.974887 100.752346h75.692118v75.692118H65.974887zM966.608804 102.798079h75.692118v75.692118H966.608804zM475.632904 249.067983h158.032868V511.43323H475.632904zM43.983258 311.97427h127.346874v349.308896H43.983258zM305.837071 729.815219h56.257656v251.625149h-56.257656z" fill="#333333" p-id="10325"></path><path d="M171.330132 614.231309l174.398731 97.172314L292.028374 782.492841l-221.450588-101.775212zM936.434244 326.294401v279.242543l-198.947527 124.278275 9.205798 251.625149 56.257656-12.274398 6.648632-193.321761 253.159448-134.506939V320.157202l-49.09759-33.754593z" fill="#333333" p-id="10326"></path></svg>